<?xml version="1.0" encoding="utf-8"?>
<!-- Generator: Adobe Illustrator 19.0.0, SVG Export Plug-In . SVG Version: 6.00 Build 0)  -->
<svg version="1.1" id="Layer_1" xmlns="http://www.w3.org/2000/svg" xmlns:xlink="http://www.w3.org/1999/xlink" x="0px" y="0px"
	 viewBox="0 0 500 500" style="enable-background:new 0 0 500 500;" xml:space="preserve">
<style type="text/css">
	.st0{enable-background:new    ;}
	.st1{fill:#FFCC66;}
</style>
<g>
	<g class="st0">
		<g>
			<path class="st1" d="M329.9,221.7c-16.4,2.3-29.6,10.4-38.5,22.7c4.1,0.9,8.2,0.9,12.3,0.3c16.3-2.3,31.9-14.5,42.3-23.4
				C340.4,220.8,335,221,329.9,221.7 M284.3,253c-3.4,8.8-15.8,9.1-14.3,22.5C277.5,272.3,292,262.2,284.3,253 M225.4,269.6
				c-1,0.1-1.9,0.8-3,2.3c-2.2,3,6.3,12,12.7,11.1c2.9-0.4,5.4-2.8,6.3-8.6c-1,0.5-2,0.8-2.9,0.9c-3.1,0.4-5.5-1.1-7.5-2.7
				C229,271,227.2,269.4,225.4,269.6 M310,284.7c-4.3,0.6-8.2,1.4-11.6,2.2c11.5,8.1,35.7,10.9,53.7,8.3c2.9-0.4,5.6-0.9,8-1.6
				C352.2,282.6,328.2,282.1,310,284.7 M213,252.8c5.5-29-20-34.6-21.3-56c-1.5-26.5,54.2-105.2,66.7-122.2c0.4-0.1,0.8-0.2,1.1-0.3
				c2.8-0.4,3.3,2.1,6,1.8c3.3,26.5,5.9,51.7,16.5,72c6.5,12.6,16.7,17.1,16.6,25.8c-0.3,13.7-12.6,15.5-16.7,30.6
				c1.8,2,2.5,5.4,2.4,9.9c11.2-2.6,13.5-10.3,23.8-13.6c2.1-0.7,4.3-1.2,6.4-1.5c6.3-0.9,12.6-0.3,18.7,0.3
				c6.1,0.6,12,1.2,17.6,0.4c0.8-0.1,1.6-0.3,2.3-0.4c22.3-4.9,31.7-30.4,53.2-33.4c1.2-0.2,2.5-0.3,3.8-0.3
				c3.1,13.7-23.8,19.9-28.6,34.8c13.8,3.6,37.9-5.2,35.6,18c-1.6,1.7-3.2,2.5-4.6,2.7c-2.6,0.4-5-1.1-7.6-2.5
				c-2.6-1.4-5.5-2.8-8.8-2.4c-0.1,0-0.2,0-0.3,0c-25.8,4.9-38.8,21.7-52.3,38.1c18.9,5.2,40.3,20.8,33.2,49.1
				c12.4,5.5,25.5,49.8-0.1,56.4c-5.3-8.5,2.4-17.8-2.3-27.9c-5,7.3-14,11.7-23,12.9c-15.6,2.2-31.4-4.7-26.8-21.3
				c1.5-0.6,2.8-0.9,3.9-1.1c4.6-0.7,6.8,1.8,8.9,4.2c2.1,2.4,4.2,4.9,8.9,4.2c0.6-0.1,1.3-0.2,2.1-0.5c0.5,0,1,0,1.4-0.1
				c5.9-0.8,5.2-7.8,10.5-9.3c-20.5-12.6-68.4,8.3-83.1-11.4c5.3,19.9,24.9,22.5,35.6,36c6.4,23.1-4.7,53.8-25.9,56.8
				c-3.1,0.4-6.3,0.3-9.8-0.5c4.8-18.8,19.7-14.6,19.1-33.4c-0.8-25.6-49.2-20.4-54.5-46.2c-14.5,16.6-36.7,46.8-23.9,72.6
				c14.6-3.4,20-23.9,34.3-26c3.1-0.4,6.7,0,10.8,1.7c-14.2,14.7-24.9,44.9-45.3,47.8c-3.6,0.5-7.5,0.1-11.8-1.3
				c-31.4-10.7-8.3-83,7.4-106.1c-0.7-0.7-1.6-0.9-2.7-0.8c-4.8,0.7-12.8,8.1-16.3,11.2c0,36.2-21.7,72.5-52,76.8
				c-10.4,1.5-21.8-0.9-33.7-8.3c3-6.6,6.8-9.1,11-9.7c3.6-0.5,7.4,0.4,11.3,1.3c3.8,0.9,7.6,1.8,11.1,1.3c0.8-0.1,1.6-0.3,2.3-0.6
				c26.7-9.7,18.4-43.5,31-71c-8.5,9.8-24.5,18.5-39.7,20.6c-10.2,1.4-20-0.1-26.9-6.1c-3.6,0.5-6.8,1.9-9.7,3.3
				c-2.9,1.4-5.4,2.7-7.8,3c-2.3,0.3-4.4-0.3-6.3-2.9c0.9-11.6,7.6-16.2,15.9-17.4c11-1.5,24.8,2.9,31.6,5.6
				c31.1-12.5,36.8-60.2,71-65C206.2,252.6,209.5,252.5,213,252.8 M396.6,20.4L104.2,61.5C78,65.2,56.7,91.1,56.7,119.4l-0.6,315.7
				c-0.1,28.3,21.2,48.2,47.3,44.5l292.4-41.1c26.2-3.7,47.5-29.6,47.5-57.8l0.6-315.7C444,36.7,422.8,16.8,396.6,20.4"/>
		</g>
	</g>
</g>
</svg>
